<svg width="346.10256347656247px" height="129.22501220703123px" xmlns="http://www.w3.org/2000/svg" viewBox="76.94871826171877 10.387493896484386 346.10256347656247 129.22501220703123" style="background: rgba(0, 0, 0, 0);" preserveAspectRatio="xMidYMid"><defs><linearGradient id="editing-shiny-gradient" x1="0.04322727117869957" x2="0.9567727288213004" y1="0.2966316784620999" y2="0.7033683215379001" gradientUnits="objectBoundingBox"><stop offset="0.0" stop-color="#ffb200"></stop><stop offset="0.5" stop-color="#b85e81"></stop><stop offset="1.0" stop-color="#bda4cb"></stop></linearGradient><linearGradient id="editing-shiny-gradient2" x1="0" x2="0" y1="0" y2="1"><stop offset="0.2" stop-color="#fff" stop-opacity="0.8"></stop><stop offset="0.8" stop-color="#fff" stop-opacity="0"></stop></linearGradient><filter id="editing-shiny2" x="-100%" y="-100%" width="300%" height="300%"><feMorphology operator="erode" radius="2"></feMorphology></filter><filter id="editing-shiny" x="-100%" y="-100%" width="300%" height="300%"><feFlood flood-color="#fff" result="flood"></feFlood><feConvolveMatrix in="SourceGraphic" result="conv" order="8,8" divisor="1" kernelMatrix="0 0 0 0 0 0 0 0 0 0 0 1 1 0 0 0 0 0 0 1 1 0 0 0 0 0 1 0 0 1 0 0 0 0 1 0 0 1 0 0 0 1 0 0 0 0 1 0 0 1 1 0 0 1 1 0 0 0 0 1 1 0 0 0 "></feConvolveMatrix><feOffset dx="0" dy="4" in="conv" result="offset"></feOffset><feComposite operator="in" in="flood" in2="offset" result="comp"></feComposite><feGaussianBlur in="offset" stdDeviation="3" result="shadow"></feGaussianBlur><feColorMatrix in="shadow" type="matrix" values="0.7 0 0 0 0  0 0.7 0 0 0  0 0 0.7 0 0  0 0 0 0.3 0" result="dark-shadow"></feColorMatrix><feOffset dx="0" dy="4" in="dark-shadow" result="offset-shadow"></feOffset><feOffset dx="0" dy="2" in="conv" result="offset-2"></feOffset><feComposite operator="out" in="offset" in2="offset-2" result="edge-diff"></feComposite><feGaussianBlur in="edge-diff" stdDeviation="1" result="edge-blur"></feGaussianBlur><feColorMatrix in="edge-blur" result="edge-shadow" type="matrix" values="0 0 0 0 0  0 0 0 0 0  0 0 0 0 0  0 0 0 0.5 0"></feColorMatrix><feComposite operator="in" in="edge-shadow" in2="offset" result="edge-shadow-in"></feComposite><feOffset dx="0" dy="1" in="edge-shadow-in" result="edge-shadow-final"></feOffset><feMerge result="out"><feMergeNode in="offset-shadow"></feMergeNode><feMergeNode in="comp"></feMergeNode><feMergeNode in="edge-shadow-final"></feMergeNode><feMergeNode in="SourceGraphic"></feMergeNode></feMerge></filter></defs><g filter="url(#editing-shiny)"><g transform="translate(129.11925220489502, 99.22000122070312)"><path d="M7.38 0L7.38-47.81L12.69-47.81L12.69-26.22L35.28-26.22L35.28-47.81L40.56-47.81L40.56 0L35.28 0L35.28-21.69L12.69-21.69L12.69 0L7.38 0ZM82.50-6.44L84.03-1.97L84.03-1.97Q77.56 0.63 69.75 0.63L69.75 0.63L69.75 0.63Q65.22 0.63 62.06-0.31L62.06-0.31L62.06-0.31Q57.03-1.75 55.38-6.25L55.38-6.25L55.38-6.25Q53.84-10.47 53.84-18.75L53.84-18.75L53.84-20.34L53.84-20.34Q53.84-30.25 57.97-34.25L57.97-34.25L57.97-34.25Q61.69-37.81 70.38-37.81L70.38-37.81L70.38-37.81Q78.84-37.81 81.94-33.63L81.94-33.63L81.94-33.63Q83.44-31.59 83.92-28.70L83.92-28.70L83.92-28.70Q84.41-25.81 84.41-23.19L84.41-23.19L84.41-23.19Q84.41-19.09 84.22-16.84L84.22-16.84L84.22-16.84Q79.81-16.66 76.31-16.66L76.31-16.66L76.31-16.66Q76.31-16.66 71.28-16.66L71.28-16.66L71.28-16.66Q63.41-16.66 59.16-17.34L59.16-17.34L59.16-17.34Q59.16-10.16 60.97-7.31L60.97-7.31L60.97-7.31Q63.19-3.84 69.81-3.84L69.81-3.84L69.81-3.84Q76.44-3.84 82.50-6.44L82.50-6.44ZM59.16-21L79.13-21L79.13-24L79.13-24Q79.13-28.91 77.22-31L77.22-31L77.22-31Q75.09-33.34 69.88-33.34L69.88-33.34L69.88-33.34Q63.63-33.34 61.34-30.63L61.34-30.63L61.34-30.63Q59.16-28.03 59.16-21L59.16-21ZM110.88-32.66L110.88-32.66L110.88-32.66Q106.88-32.66 102.72-28.66L102.72-28.66L102.72 0L97.53 0L97.53-37.19L102.09-37.19L102.59-32.25L102.59-32.25Q104.06-34.53 105.77-35.81L105.77-35.81L105.77-35.81Q107.47-37.09 108.56-37.38L108.56-37.38L108.56-37.38Q110.13-37.81 111.53-37.81L111.53-37.81L111.53-37.81Q112.94-37.81 115.06-37.25L115.06-37.25L114.59-32.28L114.59-32.28Q113-32.66 110.88-32.66ZM123.13-18.50L123.13-18.50L123.13-18.50Q123.13-25.59 123.84-28.41L123.84-28.41L123.84-28.41Q124.56-31.22 125.61-32.86L125.61-32.86L125.61-32.86Q126.66-34.50 128.44-35.59L128.44-35.59L128.44-35.59Q132-37.81 138.97-37.81L138.97-37.81L138.97-37.81Q149.03-37.81 151.91-32.84L151.91-32.84L151.91-32.84Q153.63-29.84 153.88-24.38L153.88-24.38L153.88-24.38Q153.97-21.78 153.97-18.66L153.97-18.66L153.97-18.66Q153.97-15.53 153.77-12.83L153.77-12.83L153.77-12.83Q153.56-10.13 152.97-7.97L152.97-7.97L152.97-7.97Q152.38-5.81 151.31-4.20L151.31-4.20L151.31-4.20Q150.25-2.59 148.50-1.50L148.50-1.50L148.50-1.50Q145.06 0.63 138.47 0.63L138.47 0.63L138.47 0.63Q128.59 0.63 125.50-4.25L125.50-4.25L125.50-4.25Q123.59-7.28 123.28-12.75L123.28-12.75L123.28-12.75Q123.13-15.38 123.13-18.50ZM131.63-5.47L131.63-5.47L131.63-5.47Q132.75-4.63 134.45-4.20L134.45-4.20L134.45-4.20Q136.16-3.78 139.11-3.78L139.11-3.78L139.11-3.78Q142.06-3.78 144.08-4.63L144.08-4.63L144.08-4.63Q146.09-5.47 147.11-7.33L147.11-7.33L147.11-7.33Q148.13-9.19 148.39-12.16L148.39-12.16L148.39-12.16Q148.66-15.13 148.66-19.06L148.66-19.06L148.66-19.06Q148.66-23 148.42-25.63L148.42-25.63L148.42-25.63Q148.19-28.25 147.25-29.97L147.25-29.97L147.25-29.97Q145.38-33.34 138.91-33.34L138.91-33.34L138.91-33.34Q132.06-33.34 130-29.97L130-29.97L130-29.97Q128.97-28.25 128.69-25.59L128.69-25.59L128.69-25.59Q128.41-22.94 128.41-19.81L128.41-19.81L128.41-19.81Q128.41-16.69 128.48-14.52L128.48-14.52L128.48-14.52Q128.56-12.34 128.89-10.61L128.89-10.61L128.89-10.61Q129.22-8.88 129.86-7.59L129.86-7.59L129.86-7.59Q130.50-6.31 131.63-5.47ZM194.41-6.44L195.94-1.97L195.94-1.97Q189.47 0.63 181.66 0.63L181.66 0.63L181.66 0.63Q177.13 0.63 173.97-0.31L173.97-0.31L173.97-0.31Q168.94-1.75 167.28-6.25L167.28-6.25L167.28-6.25Q165.75-10.47 165.75-18.75L165.75-18.75L165.75-20.34L165.75-20.34Q165.75-30.25 169.88-34.25L169.88-34.25L169.88-34.25Q173.59-37.81 182.28-37.81L182.28-37.81L182.28-37.81Q190.75-37.81 193.84-33.63L193.84-33.63L193.84-33.63Q195.34-31.59 195.83-28.70L195.83-28.70L195.83-28.70Q196.31-25.81 196.31-23.19L196.31-23.19L196.31-23.19Q196.31-19.09 196.13-16.84L196.13-16.84L196.13-16.84Q191.72-16.66 188.22-16.66L188.22-16.66L188.22-16.66Q188.22-16.66 183.19-16.66L183.19-16.66L183.19-16.66Q175.31-16.66 171.06-17.34L171.06-17.34L171.06-17.34Q171.06-10.16 172.88-7.31L172.88-7.31L172.88-7.31Q175.09-3.84 181.72-3.84L181.72-3.84L181.72-3.84Q188.34-3.84 194.41-6.44L194.41-6.44ZM171.06-21L191.03-21L191.03-24L191.03-24Q191.03-28.91 189.13-31L189.13-31L189.13-31Q187-33.34 181.78-33.34L181.78-33.34L181.78-33.34Q175.53-33.34 173.25-30.63L173.25-30.63L173.25-30.63Q171.06-28.03 171.06-21L171.06-21ZM207.25-3.06L209.50-7.38L209.50-7.38Q215.94-3.78 222.44-3.78L222.44-3.78L222.44-3.78Q227.84-3.78 228.78-7.63L228.78-7.63L228.78-7.63Q229.09-8.94 229.09-10.83L229.09-10.83L229.09-10.83Q229.09-12.72 228.66-13.77L228.66-13.77L228.66-13.77Q228.22-14.81 227.19-15.33L227.19-15.33L227.19-15.33Q226.16-15.84 224.45-16.09L224.45-16.09L224.45-16.09Q222.75-16.34 220.13-16.80L220.13-16.80L220.13-16.80Q217.50-17.25 215.31-17.81L215.31-17.81L215.31-17.81Q213.13-18.38 211.59-19.44L211.59-19.44L211.59-19.44Q208.34-21.72 208.47-27.13L208.47-27.13L208.47-27.91L208.47-27.91Q208.47-33.59 212.22-36L212.22-36L212.22-36Q215.84-38.38 224.19-37.63L224.19-37.63L224.19-37.63Q229.88-37.09 233.25-35.66L233.25-35.66L231.78-30.94L231.78-30.94Q228.03-32.53 222.78-33.25L222.78-33.25L222.78-33.25Q221.16-33.47 219.73-33.47L219.73-33.47L219.73-33.47Q218.31-33.47 217.16-33.25L217.16-33.25L217.16-33.25Q216-33.03 215.22-32.44L215.22-32.44L215.22-32.44Q213.72-31.22 213.66-27.91L213.66-27.91L213.66-27.91Q213.56-24 215.84-22.94L215.84-22.94L215.84-22.94Q218.03-21.91 221.03-21.52L221.03-21.52L221.03-21.52Q224.03-21.13 225.94-20.83L225.94-20.83L225.94-20.83Q227.84-20.53 229.41-20.03L229.41-20.03L229.41-20.03Q230.97-19.53 232.09-18.44L232.09-18.44L232.09-18.44Q234.44-16.22 234.38-10.72L234.38-10.72L234.38-10.72Q234.22-1.13 226.38 0.22L226.38 0.22L226.38 0.22Q224 0.63 221.63 0.63L221.63 0.63L221.63 0.63Q219.25 0.63 217.27 0.33L217.27 0.33L217.27 0.33Q215.28 0.03 213.47-0.50L213.47-0.50L213.47-0.50Q210.03-1.47 207.25-3.06L207.25-3.06Z" fill="url(#editing-shiny-gradient)"></path></g></g><g filter="url(#editing-shiny2)"><g transform="translate(129.11925220489502, 99.22000122070312)"><path d="M7.38 0L7.38-47.81L12.69-47.81L12.69-26.22L35.28-26.22L35.28-47.81L40.56-47.81L40.56 0L35.28 0L35.28-21.69L12.69-21.69L12.69 0L7.38 0ZM82.50-6.44L84.03-1.97L84.03-1.97Q77.56 0.63 69.75 0.63L69.75 0.63L69.75 0.63Q65.22 0.63 62.06-0.31L62.06-0.31L62.06-0.31Q57.03-1.75 55.38-6.25L55.38-6.25L55.38-6.25Q53.84-10.47 53.84-18.75L53.84-18.75L53.84-20.34L53.84-20.34Q53.84-30.25 57.97-34.25L57.97-34.25L57.97-34.25Q61.69-37.81 70.38-37.81L70.38-37.81L70.38-37.81Q78.84-37.81 81.94-33.63L81.94-33.63L81.94-33.63Q83.44-31.59 83.92-28.70L83.92-28.70L83.92-28.70Q84.41-25.81 84.41-23.19L84.41-23.19L84.41-23.19Q84.41-19.09 84.22-16.84L84.22-16.84L84.22-16.84Q79.81-16.66 76.31-16.66L76.31-16.66L76.31-16.66Q76.31-16.66 71.28-16.66L71.28-16.66L71.28-16.66Q63.41-16.66 59.16-17.34L59.16-17.34L59.16-17.34Q59.16-10.16 60.97-7.31L60.97-7.31L60.97-7.31Q63.19-3.84 69.81-3.84L69.81-3.84L69.81-3.84Q76.44-3.84 82.50-6.44L82.50-6.44ZM59.16-21L79.13-21L79.13-24L79.13-24Q79.13-28.91 77.22-31L77.22-31L77.22-31Q75.09-33.34 69.88-33.34L69.88-33.34L69.88-33.34Q63.63-33.34 61.34-30.63L61.34-30.63L61.34-30.63Q59.16-28.03 59.16-21L59.16-21ZM110.88-32.66L110.88-32.66L110.88-32.66Q106.88-32.66 102.72-28.66L102.72-28.66L102.72 0L97.53 0L97.53-37.19L102.09-37.19L102.59-32.25L102.59-32.25Q104.06-34.53 105.77-35.81L105.77-35.81L105.77-35.81Q107.47-37.09 108.56-37.38L108.56-37.38L108.56-37.38Q110.13-37.81 111.53-37.81L111.53-37.81L111.53-37.81Q112.94-37.81 115.06-37.25L115.06-37.25L114.59-32.28L114.59-32.28Q113-32.66 110.88-32.66ZM123.13-18.50L123.13-18.50L123.13-18.50Q123.13-25.59 123.84-28.41L123.84-28.41L123.84-28.41Q124.56-31.22 125.61-32.86L125.61-32.86L125.61-32.86Q126.66-34.50 128.44-35.59L128.44-35.59L128.44-35.59Q132-37.81 138.97-37.81L138.97-37.81L138.97-37.81Q149.03-37.81 151.91-32.84L151.91-32.84L151.91-32.84Q153.63-29.84 153.88-24.38L153.88-24.38L153.88-24.38Q153.97-21.78 153.97-18.66L153.97-18.66L153.97-18.66Q153.97-15.53 153.77-12.83L153.77-12.83L153.77-12.83Q153.56-10.13 152.97-7.97L152.97-7.97L152.97-7.97Q152.38-5.81 151.31-4.20L151.31-4.20L151.31-4.20Q150.25-2.59 148.50-1.50L148.50-1.50L148.50-1.50Q145.06 0.63 138.47 0.63L138.47 0.63L138.47 0.63Q128.59 0.63 125.50-4.25L125.50-4.25L125.50-4.25Q123.59-7.28 123.28-12.75L123.28-12.75L123.28-12.75Q123.13-15.38 123.13-18.50ZM131.63-5.47L131.63-5.47L131.63-5.47Q132.75-4.63 134.45-4.20L134.45-4.20L134.45-4.20Q136.16-3.78 139.11-3.78L139.11-3.78L139.11-3.78Q142.06-3.78 144.08-4.63L144.08-4.63L144.08-4.63Q146.09-5.47 147.11-7.33L147.11-7.33L147.11-7.33Q148.13-9.19 148.39-12.16L148.39-12.16L148.39-12.16Q148.66-15.13 148.66-19.06L148.66-19.06L148.66-19.06Q148.66-23 148.42-25.63L148.42-25.63L148.42-25.63Q148.19-28.25 147.25-29.97L147.25-29.97L147.25-29.97Q145.38-33.34 138.91-33.34L138.91-33.34L138.91-33.34Q132.06-33.34 130-29.97L130-29.97L130-29.97Q128.97-28.25 128.69-25.59L128.69-25.59L128.69-25.59Q128.41-22.94 128.41-19.81L128.41-19.81L128.41-19.81Q128.41-16.69 128.48-14.52L128.48-14.52L128.48-14.52Q128.56-12.34 128.89-10.61L128.89-10.61L128.89-10.61Q129.22-8.88 129.86-7.59L129.86-7.59L129.86-7.59Q130.50-6.31 131.63-5.47ZM194.41-6.44L195.94-1.97L195.94-1.97Q189.47 0.63 181.66 0.63L181.66 0.63L181.66 0.63Q177.13 0.63 173.97-0.31L173.97-0.31L173.97-0.31Q168.94-1.75 167.28-6.25L167.28-6.25L167.28-6.25Q165.75-10.47 165.75-18.75L165.75-18.75L165.75-20.34L165.75-20.34Q165.75-30.25 169.88-34.25L169.88-34.25L169.88-34.25Q173.59-37.81 182.28-37.81L182.28-37.81L182.28-37.81Q190.75-37.81 193.84-33.63L193.84-33.63L193.84-33.63Q195.34-31.59 195.83-28.70L195.83-28.70L195.83-28.70Q196.31-25.81 196.31-23.19L196.31-23.19L196.31-23.19Q196.31-19.09 196.13-16.84L196.13-16.84L196.13-16.84Q191.72-16.66 188.22-16.66L188.22-16.66L188.22-16.66Q188.22-16.66 183.19-16.66L183.19-16.66L183.19-16.66Q175.31-16.66 171.06-17.34L171.06-17.34L171.06-17.34Q171.06-10.16 172.88-7.31L172.88-7.31L172.88-7.31Q175.09-3.84 181.72-3.84L181.72-3.84L181.72-3.84Q188.34-3.84 194.41-6.44L194.41-6.44ZM171.06-21L191.03-21L191.03-24L191.03-24Q191.03-28.91 189.13-31L189.13-31L189.13-31Q187-33.34 181.78-33.34L181.78-33.34L181.78-33.34Q175.53-33.34 173.25-30.63L173.25-30.63L173.25-30.63Q171.06-28.03 171.06-21L171.06-21ZM207.25-3.06L209.50-7.38L209.50-7.38Q215.94-3.78 222.44-3.78L222.44-3.78L222.44-3.78Q227.84-3.78 228.78-7.63L228.78-7.63L228.78-7.63Q229.09-8.94 229.09-10.83L229.09-10.83L229.09-10.83Q229.09-12.72 228.66-13.77L228.66-13.77L228.66-13.77Q228.22-14.81 227.19-15.33L227.19-15.33L227.19-15.33Q226.16-15.84 224.45-16.09L224.45-16.09L224.45-16.09Q222.75-16.34 220.13-16.80L220.13-16.80L220.13-16.80Q217.50-17.25 215.31-17.81L215.31-17.81L215.31-17.81Q213.13-18.38 211.59-19.44L211.59-19.44L211.59-19.44Q208.34-21.72 208.47-27.13L208.47-27.13L208.47-27.91L208.47-27.91Q208.47-33.59 212.22-36L212.22-36L212.22-36Q215.84-38.38 224.19-37.63L224.19-37.63L224.19-37.63Q229.88-37.09 233.25-35.66L233.25-35.66L231.78-30.94L231.78-30.94Q228.03-32.53 222.78-33.25L222.78-33.25L222.78-33.25Q221.16-33.47 219.73-33.47L219.73-33.47L219.73-33.47Q218.31-33.47 217.16-33.25L217.16-33.25L217.16-33.25Q216-33.03 215.22-32.44L215.22-32.44L215.22-32.44Q213.72-31.22 213.66-27.91L213.66-27.91L213.66-27.91Q213.56-24 215.84-22.94L215.84-22.94L215.84-22.94Q218.03-21.91 221.03-21.52L221.03-21.52L221.03-21.52Q224.03-21.13 225.94-20.83L225.94-20.83L225.94-20.83Q227.84-20.53 229.41-20.03L229.41-20.03L229.41-20.03Q230.97-19.53 232.09-18.44L232.09-18.44L232.09-18.44Q234.44-16.22 234.38-10.72L234.38-10.72L234.38-10.72Q234.22-1.13 226.38 0.22L226.38 0.22L226.38 0.22Q224 0.63 221.63 0.63L221.63 0.63L221.63 0.63Q219.25 0.63 217.27 0.33L217.27 0.33L217.27 0.33Q215.28 0.03 213.47-0.50L213.47-0.50L213.47-0.50Q210.03-1.47 207.25-3.06L207.25-3.06Z" fill="url(#editing-shiny-gradient2)"></path></g></g><style>text {
  font-size: 64px;
  font-family: Arial Black;
  dominant-baseline: central;
  text-anchor: middle;
}</style></svg>